<mxfile host="Electron" agent="Mozilla/5.0 (Windows NT 10.0; Win64; x64) AppleWebKit/537.36 (KHTML, like Gecko) draw.io/24.7.17 Chrome/128.0.6613.36 Electron/32.0.1 Safari/537.36" version="24.7.17">
  <diagram name="Страница — 1" id="2ehGmA7eK2Htonjvz4n1">
    <mxGraphModel dx="1107" dy="661" grid="1" gridSize="10" guides="1" tooltips="1" connect="1" arrows="1" fold="1" page="1" pageScale="1" pageWidth="827" pageHeight="1169" math="0" shadow="0">
      <root>
        <mxCell id="0" />
        <mxCell id="1" parent="0" />
        <mxCell id="tTeMOEKaEQ6qEERZnG2n-1" value="Начало" style="ellipse;whiteSpace=wrap;html=1;" vertex="1" parent="1">
          <mxGeometry x="230" y="40" width="120" height="40" as="geometry" />
        </mxCell>
        <mxCell id="tTeMOEKaEQ6qEERZnG2n-2" value="int main()" style="shape=process;whiteSpace=wrap;html=1;backgroundOutline=1;" vertex="1" parent="1">
          <mxGeometry x="230" y="110" width="120" height="40" as="geometry" />
        </mxCell>
        <mxCell id="tTeMOEKaEQ6qEERZnG2n-3" value="" style="endArrow=classic;html=1;rounded=0;exitX=0.5;exitY=1;exitDx=0;exitDy=0;entryX=0.5;entryY=0;entryDx=0;entryDy=0;" edge="1" parent="1" source="tTeMOEKaEQ6qEERZnG2n-1" target="tTeMOEKaEQ6qEERZnG2n-2">
          <mxGeometry width="50" height="50" relative="1" as="geometry">
            <mxPoint x="310" y="240" as="sourcePoint" />
            <mxPoint x="360" y="190" as="targetPoint" />
          </mxGeometry>
        </mxCell>
        <mxCell id="tTeMOEKaEQ6qEERZnG2n-4" value="" style="endArrow=none;dashed=1;html=1;dashPattern=1 3;strokeWidth=2;rounded=0;" edge="1" parent="1">
          <mxGeometry width="50" height="50" relative="1" as="geometry">
            <mxPoint x="290" y="90" as="sourcePoint" />
            <mxPoint x="420" y="90" as="targetPoint" />
          </mxGeometry>
        </mxCell>
        <mxCell id="tTeMOEKaEQ6qEERZnG2n-5" value="#include &amp;lt;iostream&amp;gt;&lt;div&gt;#include &amp;lt;сlocale&amp;gt;&lt;br&gt;&lt;/div&gt;&lt;div&gt;using namespace std;&lt;/div&gt;" style="strokeWidth=2;html=1;shape=mxgraph.flowchart.annotation_1;align=left;pointerEvents=1;" vertex="1" parent="1">
          <mxGeometry x="420" y="60" width="50" height="50" as="geometry" />
        </mxCell>
        <mxCell id="tTeMOEKaEQ6qEERZnG2n-6" value="" style="endArrow=classic;html=1;rounded=0;exitX=0.5;exitY=1;exitDx=0;exitDy=0;entryX=0.5;entryY=0;entryDx=0;entryDy=0;" edge="1" parent="1" source="tTeMOEKaEQ6qEERZnG2n-2" target="tTeMOEKaEQ6qEERZnG2n-10">
          <mxGeometry width="50" height="50" relative="1" as="geometry">
            <mxPoint x="310" y="240" as="sourcePoint" />
            <mxPoint x="290" y="200" as="targetPoint" />
            <Array as="points" />
          </mxGeometry>
        </mxCell>
        <mxCell id="tTeMOEKaEQ6qEERZnG2n-7" value="{" style="edgeLabel;html=1;align=center;verticalAlign=middle;resizable=0;points=[];" vertex="1" connectable="0" parent="tTeMOEKaEQ6qEERZnG2n-6">
          <mxGeometry x="-0.344" y="-1" relative="1" as="geometry">
            <mxPoint x="-5" y="14" as="offset" />
          </mxGeometry>
        </mxCell>
        <mxCell id="tTeMOEKaEQ6qEERZnG2n-8" style="edgeStyle=orthogonalEdgeStyle;rounded=0;orthogonalLoop=1;jettySize=auto;html=1;exitX=0.5;exitY=0;exitDx=0;exitDy=0;" edge="1" parent="1" source="tTeMOEKaEQ6qEERZnG2n-10">
          <mxGeometry relative="1" as="geometry">
            <mxPoint x="290" y="200" as="targetPoint" />
          </mxGeometry>
        </mxCell>
        <mxCell id="tTeMOEKaEQ6qEERZnG2n-9" style="edgeStyle=orthogonalEdgeStyle;rounded=0;orthogonalLoop=1;jettySize=auto;html=1;exitX=0.5;exitY=1;exitDx=0;exitDy=0;" edge="1" parent="1" source="tTeMOEKaEQ6qEERZnG2n-10" target="tTeMOEKaEQ6qEERZnG2n-12">
          <mxGeometry relative="1" as="geometry" />
        </mxCell>
        <mxCell id="tTeMOEKaEQ6qEERZnG2n-10" value="setlocale(LC_ALL,&quot;russian&quot;);" style="rounded=0;whiteSpace=wrap;html=1;" vertex="1" parent="1">
          <mxGeometry x="210" y="200" width="160" height="20" as="geometry" />
        </mxCell>
        <mxCell id="tTeMOEKaEQ6qEERZnG2n-11" style="edgeStyle=orthogonalEdgeStyle;rounded=0;orthogonalLoop=1;jettySize=auto;html=1;exitX=0.5;exitY=1;exitDx=0;exitDy=0;" edge="1" parent="1" source="tTeMOEKaEQ6qEERZnG2n-12">
          <mxGeometry relative="1" as="geometry">
            <mxPoint x="290" y="280" as="targetPoint" />
          </mxGeometry>
        </mxCell>
        <mxCell id="tTeMOEKaEQ6qEERZnG2n-12" value="float a, b, f, x0, x1;" style="rounded=0;whiteSpace=wrap;html=1;" vertex="1" parent="1">
          <mxGeometry x="230" y="240" width="120" height="20" as="geometry" />
        </mxCell>
        <mxCell id="tTeMOEKaEQ6qEERZnG2n-13" style="edgeStyle=orthogonalEdgeStyle;rounded=0;orthogonalLoop=1;jettySize=auto;html=1;exitX=0.5;exitY=1;exitDx=0;exitDy=0;" edge="1" parent="1" source="tTeMOEKaEQ6qEERZnG2n-14">
          <mxGeometry relative="1" as="geometry">
            <mxPoint x="290" y="320" as="targetPoint" />
          </mxGeometry>
        </mxCell>
        <mxCell id="tTeMOEKaEQ6qEERZnG2n-14" value="float t = 0.001;" style="rounded=0;whiteSpace=wrap;html=1;" vertex="1" parent="1">
          <mxGeometry x="230" y="280" width="120" height="20" as="geometry" />
        </mxCell>
        <mxCell id="tTeMOEKaEQ6qEERZnG2n-15" style="edgeStyle=orthogonalEdgeStyle;rounded=0;orthogonalLoop=1;jettySize=auto;html=1;exitX=0.5;exitY=1;exitDx=0;exitDy=0;" edge="1" parent="1" source="tTeMOEKaEQ6qEERZnG2n-16">
          <mxGeometry relative="1" as="geometry">
            <mxPoint x="290" y="450" as="targetPoint" />
          </mxGeometry>
        </mxCell>
        <mxCell id="tTeMOEKaEQ6qEERZnG2n-16" value="cout &amp;lt;&amp;lt; &quot;Введите нижнюю и верхнюю границы отрезка&quot; &amp;lt;&amp;lt; endl;" style="shape=parallelogram;perimeter=parallelogramPerimeter;whiteSpace=wrap;html=1;fixedSize=1;" vertex="1" parent="1">
          <mxGeometry x="165" y="380" width="250" height="40" as="geometry" />
        </mxCell>
        <mxCell id="tTeMOEKaEQ6qEERZnG2n-17" style="edgeStyle=orthogonalEdgeStyle;rounded=0;orthogonalLoop=1;jettySize=auto;html=1;exitX=0.5;exitY=1;exitDx=0;exitDy=0;entryX=0.5;entryY=0;entryDx=0;entryDy=0;" edge="1" parent="1" source="tTeMOEKaEQ6qEERZnG2n-18" target="tTeMOEKaEQ6qEERZnG2n-16">
          <mxGeometry relative="1" as="geometry" />
        </mxCell>
        <mxCell id="tTeMOEKaEQ6qEERZnG2n-18" value="cout &amp;lt;&amp;lt; &quot;arccos x - &lt;span style=&quot;background: linear-gradient(90deg, rgb(211, 227, 253) 50%, rgba(0, 0, 0, 0) 50%) 0% 0px / 200% 100% no-repeat rgb(255, 255, 255); color: rgb(4, 12, 40); animation: 0.75s cubic-bezier(0.05, 0.7, 0.1, 1) 0.25s 1 normal forwards running highlight; font-family: &amp;quot;Google Sans&amp;quot;, Arial, sans-serif; font-size: 20px; text-align: left;&quot;&gt;√1-0.3x&lt;/span&gt;&lt;span style=&quot;background: linear-gradient(90deg, rgb(211, 227, 253) 50%, rgba(0, 0, 0, 0) 50%) 0% 0px / 200% 100% no-repeat rgb(255, 255, 255); color: rgb(4, 12, 40); animation: 0.75s cubic-bezier(0.05, 0.7, 0.1, 1) 0.25s 1 normal forwards running highlight; font-family: &amp;quot;Google Sans&amp;quot;, Arial, sans-serif; text-align: left; font-size: 16.6667px;&quot;&gt;&lt;sup&gt;3&amp;nbsp;&lt;/sup&gt;=0&quot;&lt;/span&gt;&amp;nbsp;&amp;lt;&amp;lt; endl;" style="shape=parallelogram;perimeter=parallelogramPerimeter;whiteSpace=wrap;html=1;fixedSize=1;" vertex="1" parent="1">
          <mxGeometry x="150" y="320" width="300" height="30" as="geometry" />
        </mxCell>
        <mxCell id="tTeMOEKaEQ6qEERZnG2n-19" style="edgeStyle=orthogonalEdgeStyle;rounded=0;orthogonalLoop=1;jettySize=auto;html=1;exitX=0.5;exitY=1;exitDx=0;exitDy=0;entryX=0.463;entryY=0.009;entryDx=0;entryDy=0;entryPerimeter=0;" edge="1" parent="1" source="tTeMOEKaEQ6qEERZnG2n-20">
          <mxGeometry relative="1" as="geometry">
            <mxPoint x="285" y="521" as="targetPoint" />
          </mxGeometry>
        </mxCell>
        <mxCell id="tTeMOEKaEQ6qEERZnG2n-20" value="cin &amp;gt;&amp;gt; a &amp;gt;&amp;gt; b;" style="shape=parallelogram;perimeter=parallelogramPerimeter;whiteSpace=wrap;html=1;fixedSize=1;" vertex="1" parent="1">
          <mxGeometry x="160" y="450" width="250" height="30" as="geometry" />
        </mxCell>
        <mxCell id="tTeMOEKaEQ6qEERZnG2n-21" value="" style="endArrow=classic;html=1;rounded=0;" edge="1" parent="1">
          <mxGeometry width="50" height="50" relative="1" as="geometry">
            <mxPoint x="390" y="380" as="sourcePoint" />
            <mxPoint x="440" y="330" as="targetPoint" />
          </mxGeometry>
        </mxCell>
        <mxCell id="tTeMOEKaEQ6qEERZnG2n-22" value="1" style="edgeLabel;html=1;align=center;verticalAlign=middle;resizable=0;points=[];" vertex="1" connectable="0" parent="1">
          <mxGeometry x="610" y="400" as="geometry">
            <mxPoint x="-395" y="302" as="offset" />
          </mxGeometry>
        </mxCell>
        <mxCell id="tTeMOEKaEQ6qEERZnG2n-45" style="edgeStyle=orthogonalEdgeStyle;rounded=0;orthogonalLoop=1;jettySize=auto;html=1;" edge="1" parent="1" source="tTeMOEKaEQ6qEERZnG2n-24" target="tTeMOEKaEQ6qEERZnG2n-31">
          <mxGeometry relative="1" as="geometry" />
        </mxCell>
        <mxCell id="tTeMOEKaEQ6qEERZnG2n-24" value="&#xa;&#xa;&#xa;&lt;p style=&quot;background:white&quot;&gt;&lt;span style=&quot;font-size:13.0pt;&#xa;font-family:&amp;quot;Arial&amp;quot;,sans-serif;color:#1A1A1A;background:white;mso-bidi-font-weight:&#xa;bold&quot; lang=&quot;EN-US&quot;&gt;f = 0.9 * pow(b, 2) * sin(pow(1 - 0.3 * pow(b, 2), 1/2));&lt;/span&gt;&lt;/p&gt;&#xa;&#xa;&#xa;&#xa;&#xa;&#xa;" style="rounded=0;whiteSpace=wrap;html=1;" vertex="1" parent="1">
          <mxGeometry x="160" y="525" width="240" height="95" as="geometry" />
        </mxCell>
        <mxCell id="tTeMOEKaEQ6qEERZnG2n-26" style="edgeStyle=orthogonalEdgeStyle;rounded=0;orthogonalLoop=1;jettySize=auto;html=1;exitX=0.5;exitY=1;exitDx=0;exitDy=0;" edge="1" parent="1" source="tTeMOEKaEQ6qEERZnG2n-24" target="tTeMOEKaEQ6qEERZnG2n-24">
          <mxGeometry relative="1" as="geometry" />
        </mxCell>
        <mxCell id="tTeMOEKaEQ6qEERZnG2n-30" style="edgeStyle=orthogonalEdgeStyle;rounded=0;orthogonalLoop=1;jettySize=auto;html=1;exitX=1;exitY=0.5;exitDx=0;exitDy=0;" edge="1" parent="1" source="tTeMOEKaEQ6qEERZnG2n-31">
          <mxGeometry relative="1" as="geometry">
            <mxPoint x="430" y="760" as="targetPoint" />
            <Array as="points">
              <mxPoint x="440" y="710" />
              <mxPoint x="440" y="710" />
            </Array>
          </mxGeometry>
        </mxCell>
        <mxCell id="tTeMOEKaEQ6qEERZnG2n-31" value="if (abs(f) &amp;lt; 1)" style="rhombus;whiteSpace=wrap;html=1;" vertex="1" parent="1">
          <mxGeometry x="240" y="670" width="80" height="80" as="geometry" />
        </mxCell>
        <mxCell id="tTeMOEKaEQ6qEERZnG2n-33" value="0" style="edgeLabel;html=1;align=center;verticalAlign=middle;resizable=0;points=[];" vertex="1" connectable="0" parent="1">
          <mxGeometry x="280" y="670" as="geometry">
            <mxPoint x="55" y="29" as="offset" />
          </mxGeometry>
        </mxCell>
        <mxCell id="tTeMOEKaEQ6qEERZnG2n-36" value="x0 = b;" style="rounded=0;whiteSpace=wrap;html=1;" vertex="1" parent="1">
          <mxGeometry x="70" y="760" width="120" height="30" as="geometry" />
        </mxCell>
        <mxCell id="tTeMOEKaEQ6qEERZnG2n-38" value="x0 = a;" style="rounded=0;whiteSpace=wrap;html=1;" vertex="1" parent="1">
          <mxGeometry x="360" y="760" width="120" height="30" as="geometry" />
        </mxCell>
        <mxCell id="tTeMOEKaEQ6qEERZnG2n-41" value="" style="endArrow=none;html=1;rounded=0;" edge="1" parent="1">
          <mxGeometry width="50" height="50" relative="1" as="geometry">
            <mxPoint x="280" y="840" as="sourcePoint" />
            <mxPoint x="129.5" y="790" as="targetPoint" />
            <Array as="points">
              <mxPoint x="129.5" y="840" />
            </Array>
          </mxGeometry>
        </mxCell>
        <mxCell id="tTeMOEKaEQ6qEERZnG2n-42" value="" style="endArrow=none;html=1;rounded=0;" edge="1" parent="1">
          <mxGeometry width="50" height="50" relative="1" as="geometry">
            <mxPoint x="280" y="840" as="sourcePoint" />
            <mxPoint x="430" y="790" as="targetPoint" />
            <Array as="points">
              <mxPoint x="430" y="840" />
            </Array>
          </mxGeometry>
        </mxCell>
        <mxCell id="tTeMOEKaEQ6qEERZnG2n-46" value="" style="endArrow=classic;html=1;rounded=0;" edge="1" parent="1">
          <mxGeometry width="50" height="50" relative="1" as="geometry">
            <mxPoint x="240" y="710" as="sourcePoint" />
            <mxPoint x="130" y="760" as="targetPoint" />
            <Array as="points">
              <mxPoint x="130" y="710" />
            </Array>
          </mxGeometry>
        </mxCell>
        <mxCell id="tTeMOEKaEQ6qEERZnG2n-49" value="" style="endArrow=classic;html=1;rounded=0;" edge="1" parent="1">
          <mxGeometry width="50" height="50" relative="1" as="geometry">
            <mxPoint x="280" y="840" as="sourcePoint" />
            <mxPoint x="280" y="880" as="targetPoint" />
          </mxGeometry>
        </mxCell>
        <mxCell id="tTeMOEKaEQ6qEERZnG2n-52" style="edgeStyle=orthogonalEdgeStyle;rounded=0;orthogonalLoop=1;jettySize=auto;html=1;exitX=0.5;exitY=1;exitDx=0;exitDy=0;" edge="1" parent="1" source="tTeMOEKaEQ6qEERZnG2n-50">
          <mxGeometry relative="1" as="geometry">
            <mxPoint x="280" y="980" as="targetPoint" />
          </mxGeometry>
        </mxCell>
        <mxCell id="tTeMOEKaEQ6qEERZnG2n-50" value="x1 = cos(pow(1 - 0.3 * pow(x0, 3), 1/2));" style="rounded=0;whiteSpace=wrap;html=1;" vertex="1" parent="1">
          <mxGeometry x="220" y="880" width="120" height="60" as="geometry" />
        </mxCell>
        <mxCell id="tTeMOEKaEQ6qEERZnG2n-54" style="edgeStyle=orthogonalEdgeStyle;rounded=0;orthogonalLoop=1;jettySize=auto;html=1;exitX=0.5;exitY=1;exitDx=0;exitDy=0;" edge="1" parent="1" source="tTeMOEKaEQ6qEERZnG2n-53">
          <mxGeometry relative="1" as="geometry">
            <mxPoint x="280" y="1090" as="targetPoint" />
          </mxGeometry>
        </mxCell>
        <mxCell id="tTeMOEKaEQ6qEERZnG2n-53" value="while (abs(x1 - x0) &amp;gt; t)" style="rhombus;whiteSpace=wrap;html=1;" vertex="1" parent="1">
          <mxGeometry x="210" y="980" width="140" height="80" as="geometry" />
        </mxCell>
        <mxCell id="tTeMOEKaEQ6qEERZnG2n-55" value="x0 = x1;" style="rounded=0;whiteSpace=wrap;html=1;" vertex="1" parent="1">
          <mxGeometry x="220" y="1090" width="120" height="30" as="geometry" />
        </mxCell>
        <mxCell id="tTeMOEKaEQ6qEERZnG2n-57" value="1" style="edgeLabel;html=1;align=center;verticalAlign=middle;resizable=0;points=[];" vertex="1" connectable="0" parent="1">
          <mxGeometry x="660" y="770" as="geometry">
            <mxPoint x="-395" y="302" as="offset" />
          </mxGeometry>
        </mxCell>
        <mxCell id="tTeMOEKaEQ6qEERZnG2n-59" value="" style="endArrow=none;html=1;rounded=0;" edge="1" parent="1">
          <mxGeometry width="50" height="50" relative="1" as="geometry">
            <mxPoint x="120" y="860" as="sourcePoint" />
            <mxPoint x="220" y="1110" as="targetPoint" />
            <Array as="points">
              <mxPoint x="120" y="1110" />
            </Array>
          </mxGeometry>
        </mxCell>
        <mxCell id="tTeMOEKaEQ6qEERZnG2n-60" value="" style="endArrow=classic;html=1;rounded=0;" edge="1" parent="1">
          <mxGeometry width="50" height="50" relative="1" as="geometry">
            <mxPoint x="120" y="860" as="sourcePoint" />
            <mxPoint x="280" y="860" as="targetPoint" />
          </mxGeometry>
        </mxCell>
        <mxCell id="tTeMOEKaEQ6qEERZnG2n-61" value="" style="endArrow=classic;html=1;rounded=0;" edge="1" parent="1">
          <mxGeometry width="50" height="50" relative="1" as="geometry">
            <mxPoint x="610" y="1035" as="sourcePoint" />
            <mxPoint x="610" y="1095" as="targetPoint" />
          </mxGeometry>
        </mxCell>
        <mxCell id="tTeMOEKaEQ6qEERZnG2n-62" value="return 0;" style="ellipse;whiteSpace=wrap;html=1;" vertex="1" parent="1">
          <mxGeometry x="550" y="1095" width="120" height="40" as="geometry" />
        </mxCell>
        <mxCell id="tTeMOEKaEQ6qEERZnG2n-63" value="}" style="text;html=1;align=center;verticalAlign=middle;resizable=0;points=[];autosize=1;strokeColor=none;fillColor=none;" vertex="1" parent="1">
          <mxGeometry x="670" y="1100" width="30" height="30" as="geometry" />
        </mxCell>
        <mxCell id="tTeMOEKaEQ6qEERZnG2n-64" value="0" style="text;html=1;align=center;verticalAlign=middle;resizable=0;points=[];autosize=1;strokeColor=none;fillColor=none;" vertex="1" parent="1">
          <mxGeometry x="350" y="990" width="30" height="30" as="geometry" />
        </mxCell>
        <mxCell id="tTeMOEKaEQ6qEERZnG2n-65" value="" style="endArrow=classic;html=1;rounded=0;exitX=1;exitY=0.5;exitDx=0;exitDy=0;" edge="1" parent="1">
          <mxGeometry width="50" height="50" relative="1" as="geometry">
            <mxPoint x="350" y="1020" as="sourcePoint" />
            <mxPoint x="560" y="1020" as="targetPoint" />
            <Array as="points">
              <mxPoint x="540" y="1020" />
            </Array>
          </mxGeometry>
        </mxCell>
        <mxCell id="tTeMOEKaEQ6qEERZnG2n-66" value="cout &amp;lt;&amp;lt; x1;" style="shape=parallelogram;perimeter=parallelogramPerimeter;whiteSpace=wrap;html=1;fixedSize=1;" vertex="1" parent="1">
          <mxGeometry x="550" y="1005" width="120" height="30" as="geometry" />
        </mxCell>
      </root>
    </mxGraphModel>
  </diagram>
</mxfile>
